PathFileType	4	(X/Y/Z)	27_2_68_p0_0-344_filt_butterworth.trc
DataRate	CameraRate	NumFrames	NumMarkers	Units	OrigDataRate	OrigDataStartFrame	OrigNumFrames
60.0	60.0	4	27	m	60.0	0	344
Frame#	Time	RHip			RKnee			RAnkle			RBigToe			RSmallToe			RHeel			LHip			LKnee			LAnkle			LBigToe			LSmallToe			LHeel			Neck			Head			Nose			RShoulder			RElbow			RWrist			RThumb			RIndex			RPinky			LShoulder			LElbow			LWrist			LThumb			LIndex			LPinky			
		X1	Y1	Z1	X2	Y2	Z2	X3	Y3	Z3	X4	Y4	Z4	X5	Y5	Z5	X6	Y6	Z6	X7	Y7	Z7	X8	Y8	Z8	X9	Y9	Z9	X10	Y10	Z10	X11	Y11	Z11	X12	Y12	Z12	X13	Y13	Z13	X14	Y14	Z14	X15	Y15	Z15	X16	Y16	Z16	X17	Y17	Z17	X18	Y18	Z18	X19	Y19	Z19	X20	Y20	Z20	X21	Y21	Z21	X22	Y22	Z22	X23	Y23	Z23	X24	Y24	Z24	X25	Y25	Z25	X26	Y26	Z26	X27	Y27	Z27	
0	0.0	0.1322661834827623	0.9071036203832731	0.7896201900148752	0.17121480961850002	0.411642270133566	0.805885423640947	0.18750313743656905	-0.0581067544644429	0.8132321401930858	0.13814382442021897	-0.061723947884357824	0.604746402233143	0.2043425462651911	-0.04575494048609356	0.6135001992362331	0.16192115051582867	-0.15395934695959984	0.8939303450803425	-0.08505329551793034	0.8808038663542151	0.8308633268106447	-0.0555565963565957	0.405955018584462	0.8311940258556326	-0.03975187668637337	-0.05285042189796131	0.8059910890145292	-0.02859394378289198	-0.03999819939424158	0.6005592043203556	-0.08093897473406862	-0.0677353255973086	0.6483883373545998	-0.017335705737862327	-0.14282257327991005	0.8819050233424063	0.0011361755107061515	1.4536201589925493	0.8257446761330346	0.014089466289073859	1.7026561542590788	0.8120103843968454	-0.012283824023015002	1.5968564281125444	0.7199515085976603	0.16128487068163558	1.3686265344975757	0.7962870745595207	0.18569946938216988	1.0908121597908702	0.7553044061284612	0.10042110939255439	0.8631321764323258	0.6588151475255574	0.040305746234996234	0.7555748800608274	0.6227774744067125	0.03162958530229608	0.7301759670186976	0.6287071927190977	0.026342285624392996	0.7398269271117289	0.6487109042791271	-0.15972497748700676	1.3530184292478622	0.8241964422659989	-0.17199234127631294	1.0772676192179411	0.793274848882019	-0.07592460787884409	0.8688118373848601	0.6592438732375419	0.05169347559104169	0.829706203967341	0.6059900651948542	0.04831914557494756	0.7823270491484549	0.62906772655362	0.005403073444058483	0.7268655737950447	0.6477109099427123	
1	0.0166666666666666	0.13199812322545673	0.9075650003577648	0.7876276020090999	0.17121306823293037	0.41164107061551347	0.8058107395622227	0.1875551914230313	-0.057750203501700334	0.813173319576634	0.13755867816327869	-0.0597443212050884	0.6029540170137501	0.1979616934748212	-0.041238842148634436	0.6066099780997709	0.1625798809678152	-0.15305608946258234	0.8938877038172055	-0.0843819221035908	0.8800748434111192	0.8329834992147456	-0.05549489433656883	0.40514338498743074	0.8307151972781406	-0.04024895074072481	-0.05422357568366737	0.8056224394865209	-0.027015766658068607	-0.0420936992084425	0.6060772100755629	-0.0818679194309883	-0.06718519161774475	0.6476738290759032	-0.015735801379921713	-0.14026428376408762	0.8791848459882375	0.001871647656771852	1.4523529985555184	0.8270597473588259	0.01347408834175872	1.7015760469387247	0.8092687924214177	-0.012262680485260085	1.5968546177226624	0.7198497996220957	0.1612573546376746	1.370419390109744	0.796278263608458	0.18944191688478557	1.0923653898532328	0.7458059504640447	0.10003409045344014	0.8634888395432548	0.6565875477113797	0.03631129132925821	0.7589225328664054	0.6275026341426204	0.028080777505475288	0.7342696025697903	0.6249330679520272	0.025727498906638648	0.7380047367397801	0.6526770778849694	-0.15729071752145618	1.3525785906477807	0.8266616475740464	-0.1746475986427058	1.0790014137996886	0.7929218836716226	-0.07607467787977358	0.86842484287736	0.6596050078609601	0.04931620920991149	0.823929916107482	0.6208479592111196	0.04738667310361209	0.7859149289850441	0.6306021520901097	0.006367634259968374	0.7292663935637083	0.649309474844596	
2	0.0333333333333333	0.13204500177826645	0.9077962833524398	0.7859102760918071	0.17121229178868272	0.4116673649574628	0.8057600938619612	0.1875996721721871	-0.05743854046658134	0.8131272042916082	0.13677131249480504	-0.05724052679070194	0.6006753135568287	0.1943928301922469	-0.03832825233302602	0.6022777374269526	0.1631229008463707	-0.15235734319200997	0.8939475812180655	-0.08380538268623033	0.8792487795150967	0.8347687360364191	-0.05543382171067855	0.40444118319145983	0.8303626466274545	-0.040659322919649625	-0.05525258762443454	0.8053136853533079	-0.026050277355065318	-0.043334447440244214	0.609590564741838	-0.08276177626132908	-0.06787949648089059	0.6489518432269645	-0.014443978265288693	-0.13818187828968262	0.8769388023285681	0.0021890905398200653	1.4514978751622793	0.8274304240296834	0.013313488822369117	1.7012754496349536	0.808256061874515	-0.012241717930819266	1.5968633261473895	0.7197950169832011	0.16124209935443384	1.3715437418059793	0.7963159907708695	0.19235546589617547	1.0937504165215277	0.7381665255401666	0.09960628909855163	0.864575318715785	0.6529206105719164	0.03306942562384089	0.7626149310738904	0.6291198049784977	0.02549057833019608	0.7371041690803137	0.6225425390166451	0.02610426366011055	0.737488957683542	0.6532361997385838	-0.155404506403172	1.3524901779839666	0.8274770279521498	-0.17569564083886824	1.0805410587201152	0.7917391612801339	-0.07618690599817526	0.8683158098388457	0.6596501709205775	0.04814018917495257	0.8222466912782507	0.6263174013981214	0.046726968231584655	0.7887328695153883	0.6299532166412655	0.007291210739339891	0.7318686080585916	0.6496887296713677	
3	0.05	0.1323668331236863	0.9078258219066212	0.7844496521250619	0.1712126017802229	0.4117172137968216	0.8057304521409497	0.1876371128613099	-0.05716888022481925	0.8130926344862132	0.1358695485945266	-0.05445526593734788	0.5981321426889812	0.19305801866725503	-0.036717328987142014	0.6000066625458986	0.16356026185362674	-0.1518436799453085	0.8940962319943818	-0.08331743289083833	0.8783448306550654	0.8362417620929103	-0.05537361194779713	0.4038399779585352	0.8301241807764534	-0.040989260703721345	-0.05597096361251053	0.8050612165033677	-0.02557543263000861	-0.04389601485566659	0.6114849842930181	-0.08356878972155887	-0.06937841380419854	0.6515928594131377	-0.013433473333970746	-0.13653772865659894	0.8751296448072184	0.0021864243515740986	1.4509811586576709	0.827095611501384	0.01349318838195893	1.7015284199039071	0.8085478279942089	-0.012222165256188019	1.59688103544158	0.7197748476193198	0.1612366221282843	1.3721310944204215	0.7963841376810559	0.19446954999502755	1.0949404488350996	0.7324453100411857	0.09916720295763357	0.8661377884099856	0.6483421511693818	0.030657772147789433	0.7665236821371684	0.6279289480359289	0.02390601055580284	0.7389372598967674	0.6208872610878221	0.027332894116674097	0.7380787541613941	0.6507852070312912	-0.15400064824519527	1.3526625284036455	0.8270523570123421	-0.17546917044652316	1.081896330620849	0.7898527820676414	-0.07623645832760001	0.8685087466803681	0.6593382476450533	0.04794167553500689	0.8237253489699046	0.6243734721529366	0.04635782447347234	0.7909024950533885	0.6275921166285905	0.00813545016730873	0.7345083831976696	0.6489896992783102	
